<?xml version="1.0" standalone="no"?>
<!DOCTYPE svg PUBLIC "-//W3C//DTD SVG 20010904//EN"
 "http://www.w3.org/TR/2001/REC-SVG-20010904/DTD/svg10.dtd">
<svg version="1.0" xmlns="http://www.w3.org/2000/svg"
 width="380.000000pt" height="380.000000pt" viewBox="0 0 380.000000 380.000000"
 preserveAspectRatio="xMidYMid meet">
<metadata>
Created by potrace 1.14, written by Peter Selinger 2001-2017
</metadata>
<g transform="translate(0.000000,380.000000) scale(0.100000,-0.100000)"
fill="#000000" stroke="none">
<path d="M1086 3763 c11 -25 17 -79 19 -167 4 -158 29 -417 44 -445 6 -11 11
-60 11 -109 0 -49 5 -103 11 -121 9 -25 8 -36 -5 -56 -9 -14 -43 -94 -75 -178
-32 -83 -82 -208 -111 -277 -41 -100 -51 -133 -47 -165 5 -50 82 -233 90 -214
3 8 6 0 6 -17 1 -17 -12 -64 -29 -103 -38 -94 -54 -177 -47 -253 5 -60 4 -63
-32 -108 -21 -25 -46 -68 -55 -97 -15 -46 -16 -64 -6 -150 16 -128 43 -216 84
-261 18 -20 38 -52 46 -70 7 -18 18 -36 25 -40 7 -4 15 -20 19 -35 4 -19 3
-26 -4 -22 -5 3 -10 -1 -10 -9 0 -9 -7 -16 -16 -16 -9 0 -14 -5 -12 -12 7 -21
-62 -47 -141 -54 -74 -6 -98 -10 -190 -34 l-43 -11 69 -72 c82 -85 109 -122
127 -174 13 -37 12 -44 -21 -124 -34 -84 -133 -355 -133 -364 0 -3 6 -5 14 -5
16 0 38 54 81 195 45 146 118 315 184 426 77 129 100 159 108 140 3 -8 16 -24
28 -35 12 -12 31 -40 42 -62 l20 -42 -64 -93 c-85 -125 -161 -252 -222 -374
-66 -132 -74 -155 -58 -155 7 0 29 32 48 72 19 39 51 98 72 130 20 32 37 63
37 68 0 5 10 14 21 21 17 9 19 13 8 20 -8 5 -9 9 -4 10 6 1 15 2 22 3 17 2 54
46 74 92 10 22 27 49 39 59 24 22 28 67 5 58 -12 -4 -10 4 6 32 l23 38 19 -51
19 -50 -31 -67 c-17 -36 -44 -86 -61 -110 -16 -24 -35 -54 -40 -67 -6 -13 -19
-36 -29 -53 -31 -47 -24 -48 17 -2 48 53 95 121 129 189 25 50 26 51 35 28 6
-14 7 -57 4 -97 -5 -53 -3 -72 6 -75 9 -3 8 -12 -6 -32 -21 -33 -8 -58 18 -36
29 23 28 -13 -2 -75 -16 -33 -32 -70 -36 -82 l-7 -23 186 0 186 0 -3 27 c-3
28 -28 45 -28 19 0 -14 -2 -14 -17 2 -10 9 -27 53 -39 97 -11 44 -24 80 -29
80 -16 0 -27 -78 -20 -140 5 -54 5 -58 -8 -40 -8 11 -17 43 -21 70 -16 115
-40 142 -75 85 -18 -30 -31 -30 -31 0 0 9 -9 25 -20 35 -19 17 -38 100 -26
112 3 3 10 -6 16 -21 5 -15 14 -24 20 -21 5 3 10 1 10 -4 0 -6 6 -11 13 -11
13 0 47 81 47 112 0 10 5 17 11 15 6 -1 17 14 24 33 11 29 14 31 14 11 1 -16
5 -21 16 -17 9 3 15 0 15 -7 0 -7 7 -22 16 -33 14 -18 15 -16 10 26 l-5 45 20
-45 c28 -64 34 -73 47 -78 7 -2 12 6 12 17 0 12 5 21 10 21 6 0 10 -6 10 -13
0 -20 40 -55 40 -36 0 8 13 -1 29 -20 20 -25 33 -32 48 -27 13 4 29 -1 46 -14
32 -26 51 -26 44 0 -6 24 10 26 35 4 14 -13 21 -14 32 -5 9 8 15 8 18 2 2 -6
9 -7 16 -2 19 12 23 110 5 144 -22 45 -9 56 18 15 28 -43 52 -56 94 -52 124
14 130 15 158 42 26 25 29 26 38 9 15 -26 52 -21 67 10 6 15 12 34 12 42 0 11
5 10 21 -5 21 -19 21 -19 18 1 -4 25 1 28 25 19 12 -5 21 -3 24 4 2 6 10 8 18
5 28 -11 111 18 148 52 20 18 36 38 36 44 0 6 13 11 30 11 20 0 33 7 41 22
l12 23 10 -23 c14 -30 41 -24 45 11 6 53 17 26 17 -44 0 -73 -7 -86 -53 -94
-10 -1 -16 -9 -14 -16 1 -9 -3 -8 -11 4 -22 27 -30 20 -24 -21 l6 -37 -19 25
c-23 30 -38 20 -22 -15 10 -21 9 -25 -3 -25 -8 0 -15 7 -15 15 0 27 -26 27
-81 1 -39 -20 -55 -23 -60 -14 -11 18 -22 3 -35 -45 -7 -30 -15 -42 -28 -40
-10 0 -22 -10 -28 -23 -6 -13 -16 -24 -22 -23 -36 4 -56 -3 -56 -18 -1 -41
-17 -45 -38 -9 -12 20 -27 36 -34 36 -13 0 -38 -44 -38 -66 0 -6 -7 -17 -15
-24 -16 -13 -14 -33 9 -81 7 -14 9 -34 5 -45 -6 -17 -7 -18 -13 -1 -3 9 -9 25
-12 35 -4 10 -8 12 -11 5 -2 -7 -11 -9 -19 -6 -17 6 -19 -8 -2 -25 9 -9 4 -9
-20 0 -21 8 -32 19 -32 32 0 24 -37 84 -60 96 -15 8 -22 3 -39 -33 -12 -24
-21 -50 -21 -58 -1 -11 -3 -11 -13 3 -9 12 -17 14 -30 7 -9 -6 -17 -6 -17 -2
0 4 -5 1 -10 -7 -5 -8 -24 -15 -44 -15 -31 0 -35 3 -41 31 -11 62 -27 59 -83
-15 -29 -37 -52 -73 -52 -79 0 -7 -7 -12 -15 -12 -9 0 -15 -9 -15 -25 l0 -25
466 0 c317 0 472 3 486 11 14 8 23 8 31 0 7 -7 54 -11 118 -11 84 0 114 4 139
18 30 16 32 16 44 0 11 -16 31 -18 144 -18 l131 0 6 58 c13 107 26 147 112
337 93 205 134 315 152 410 18 90 15 86 56 70 43 -19 46 -7 5 23 -25 19 -30
29 -30 67 0 39 2 44 28 49 59 11 188 16 200 8 11 -8 10 -31 -7 -135 -35 -207
-125 -440 -282 -728 -43 -80 -79 -149 -79 -153 0 -3 29 -6 63 -6 l64 0 63 101
c90 143 182 330 218 440 48 147 82 339 61 339 -9 0 -11 -12 -12 -57 0 -13 -3
-23 -7 -23 -4 0 -10 -19 -14 -42 -4 -23 -25 -94 -47 -158 -22 -63 -41 -119
-43 -125 -1 -5 -19 -45 -39 -88 -20 -44 -37 -81 -37 -83 0 -10 -103 -182 -124
-208 l-24 -29 -12 22 c-10 19 -5 32 33 99 104 179 190 366 203 437 3 15 16 67
31 114 19 64 26 111 27 183 0 54 5 98 9 98 5 0 18 -5 29 -11 15 -8 23 -8 32 1
8 8 15 1 28 -27 16 -37 17 -37 17 -10 2 64 -53 143 -124 176 -49 23 -115 21
-169 -6 -34 -18 -86 -72 -86 -90 0 -7 -9 -13 -20 -13 -23 0 -23 -19 0 -37 32
-27 -10 -11 -56 20 -27 18 -71 45 -97 61 -26 15 -63 41 -82 57 -32 28 -95 114
-95 129 0 4 18 -2 41 -13 24 -12 58 -19 87 -19 56 2 128 25 125 41 -2 6 9 11
24 11 35 0 20 14 -32 30 -174 55 -310 195 -345 356 -6 27 -13 58 -16 69 -4 14
4 10 26 -15 22 -24 28 -28 20 -12 l-12 24 29 -21 c34 -26 155 -51 160 -34 3 8
13 6 34 -4 48 -24 43 -10 -11 30 -50 37 -111 108 -157 181 -20 30 -22 40 -12
47 11 6 10 11 -3 26 -15 17 -78 120 -78 127 0 2 17 -13 38 -34 41 -42 104 -62
125 -41 9 9 8 11 -4 6 -23 -9 -80 35 -116 90 -41 62 -41 72 0 47 17 -11 44
-22 60 -26 35 -8 153 12 167 29 10 12 5 16 -215 140 -49 28 -118 100 -173 181
-45 68 -45 87 0 49 31 -26 54 -33 42 -13 -5 7 16 -5 46 -27 30 -22 51 -34 46
-27 -10 17 4 15 47 -8 20 -11 38 -16 38 -10 1 5 2 16 3 23 2 6 -8 27 -21 45
-28 37 -23 40 19 10 48 -34 139 -68 184 -68 23 0 61 7 85 16 50 18 119 25 119
13 0 -13 -93 -57 -153 -74 -43 -11 -48 -15 -29 -21 12 -3 22 -10 22 -15 0 -5
24 -24 53 -43 82 -55 165 -65 215 -27 22 16 20 17 -48 13 -64 -4 -77 -1 -138
29 -36 18 -61 34 -54 37 7 2 21 -3 31 -12 39 -35 97 -17 176 54 31 28 59 49
63 47 77 -44 152 -47 184 -8 9 12 21 21 27 21 7 0 11 30 11 85 0 47 -3 84 -7
83 -5 0 -16 2 -26 7 -27 12 -34 -3 -8 -21 28 -20 12 -44 -31 -44 -20 0 -39
-10 -58 -30 -15 -16 -39 -34 -52 -39 -25 -9 -78 -4 -78 9 0 11 36 41 42 34 4
-3 19 1 36 10 16 8 32 13 35 10 3 -3 15 4 26 15 12 12 30 21 42 21 11 0 17 5
14 10 -10 16 -44 11 -65 -10 -13 -13 -20 -16 -20 -7 0 39 -80 73 -107 46 -8
-8 -19 -6 -41 5 -38 20 -62 20 -88 1 -19 -13 -22 -12 -34 10 -13 25 -65 55
-94 55 -28 0 -17 -19 18 -34 37 -16 40 -19 50 -60 7 -30 6 -31 -89 -14 -13 2
-19 -2 -17 -11 2 -8 -15 2 -37 22 -58 52 -71 46 -22 -9 48 -55 51 -68 14 -52
-24 10 -123 78 -123 84 0 1 25 16 55 33 60 34 160 128 243 229 l51 62 91 -109
c88 -106 126 -141 152 -141 8 0 6 4 -4 11 -27 16 -229 259 -223 269 3 5 19 -4
36 -19 73 -67 199 -99 283 -71 33 11 36 15 36 49 l0 38 -92 22 c-100 24 -210
81 -226 116 -5 11 -8 52 -7 92 2 55 8 83 28 122 15 27 31 70 38 95 6 25 15 46
20 46 33 0 151 -146 210 -260 15 -29 25 -39 27 -29 3 16 -39 87 -126 216 -38
57 -90 98 -137 108 -27 6 -28 5 -12 -8 22 -19 22 -27 -3 -27 -17 0 -20 7 -20
49 0 28 4 52 9 55 5 3 12 26 16 51 5 38 10 45 24 40 10 -3 46 -1 82 4 35 5 66
7 68 5 2 -2 -36 -23 -85 -46 -70 -34 -84 -43 -65 -46 43 -7 270 122 251 142
-3 3 -34 -1 -67 -9 -34 -8 -94 -18 -134 -23 l-71 -9 5 39 c5 36 3 39 -16 36
-20 -3 -23 -11 -29 -108 -11 -145 -19 -151 -12 -7 l5 117 -39 0 c-34 0 -44 -5
-67 -36 -15 -19 -30 -33 -33 -30 -3 4 5 17 18 31 26 28 20 47 -7 23 -24 -22
-150 -23 -224 -2 -86 24 -106 13 -36 -21 48 -22 69 -27 113 -23 45 4 54 2 49
-9 -3 -8 -5 -16 -5 -18 0 -4 -105 -85 -129 -99 -8 -6 -7 1 4 18 10 15 13 26 6
26 -6 0 -11 -4 -11 -10 0 -5 -5 -10 -10 -10 -6 0 -1 19 10 43 16 33 17 37 3
17 -40 -55 -65 -79 -100 -95 -21 -10 -53 -29 -70 -43 -18 -13 -33 -23 -33 -21
0 2 9 33 20 68 22 68 21 92 0 41 -8 -19 -44 -55 -91 -91 -43 -32 -81 -64 -84
-69 -4 -6 -10 -8 -15 -5 -10 6 -160 -152 -202 -213 -16 -23 -38 -63 -49 -88
-21 -46 -66 -82 -138 -111 l-36 -14 36 33 c81 75 150 184 195 311 25 73 34 86
141 197 78 80 128 124 155 135 22 9 38 18 35 21 -9 10 -128 -25 -181 -53 -101
-54 -304 -287 -496 -567 -51 -75 -60 -84 -133 -120 -43 -21 -81 -36 -83 -33
-3 3 10 27 29 54 19 26 59 98 89 158 30 61 71 137 91 170 20 33 37 64 37 69 0
18 77 133 132 198 33 38 86 91 119 118 59 49 69 70 13 28 -93 -69 -207 -204
-257 -303 -43 -86 -142 -211 -208 -262 -100 -77 -199 -174 -227 -223 -33 -58
-101 -130 -124 -130 -16 0 -14 11 18 98 20 53 55 154 79 223 24 69 69 190 99
268 45 115 96 297 96 343 0 4 -24 8 -54 8 -52 0 -53 0 -49 -27 3 -16 9 -38 15
-50 7 -13 9 -57 6 -110 -7 -103 -42 -216 -134 -421 -67 -152 -79 -147 -47 17
14 75 18 137 16 281 -1 102 -5 213 -8 248 l-7 62 -54 0 c-63 0 -61 14 -16
-145 22 -75 27 -115 29 -245 l4 -155 -48 137 c-26 76 -56 147 -65 158 -10 11
-18 31 -18 45 0 14 -4 25 -10 25 -26 0 4 -428 39 -560 11 -41 19 -76 17 -77
-2 -2 -11 18 -21 44 -10 27 -42 107 -73 178 -30 72 -71 175 -91 230 -35 96
-36 105 -36 233 0 98 -3 132 -12 132 -21 0 -26 -46 -20 -168 3 -83 12 -142 30
-202 l25 -85 -28 34 c-17 20 -36 63 -49 109 -12 44 -35 98 -55 127 -38 54
-168 185 -185 185 -6 0 -4 -15 5 -37z m104 -110 c67 -74 81 -98 105 -186 12
-44 27 -70 65 -109 28 -28 48 -53 46 -55 -1 -2 -26 21 -54 51 -42 44 -55 67
-76 137 -24 76 -33 91 -96 157 -38 39 -65 72 -60 72 4 0 36 -30 70 -67z m2293
-175 c8 -5 6 -8 -5 -8 -15 0 -18 8 -16 48 1 47 1 47 5 7 3 -22 10 -43 16 -47z
m16 -50 c-36 -89 -49 -139 -49 -190 0 -42 -5 -54 -39 -91 -42 -46 -61 -78 -91
-161 -16 -42 -36 -69 -83 -112 -94 -85 -112 -86 -26 -1 57 57 82 89 99 134 30
73 59 120 99 157 27 26 31 37 31 81 0 47 32 163 59 214 21 39 21 21 0 -31z
m-2054 -456 c-8 -8 -25 10 -25 26 0 13 2 13 14 -4 8 -10 13 -21 11 -22z m-25
-52 c-6 -11 -9 -33 -7 -48 l3 -27 13 33 c7 17 18 32 23 32 6 0 17 8 24 18 12
16 13 16 14 -4 0 -11 -10 -30 -23 -42 -17 -16 -22 -30 -19 -52 6 -43 -20 -39
-41 5 -18 38 -23 110 -8 100 5 -3 13 0 16 6 12 19 17 1 5 -21z m2070 -277 c25
-14 34 -15 37 -5 3 6 18 12 34 12 35 0 31 -10 -13 -42 -17 -12 -29 -17 -25
-11 8 12 -23 23 -70 23 -38 0 -51 15 -26 29 24 14 26 14 63 -6z m126 -41 c-22
-5 -30 3 -21 18 5 8 11 7 22 -2 15 -12 14 -13 -1 -16z m-630 3 c10 -8 14 -15
8 -15 -5 0 -19 7 -30 15 -10 8 -14 15 -8 15 5 0 19 -7 30 -15z m-66 -15 c8 -5
11 -10 5 -10 -5 0 -17 5 -25 10 -8 5 -10 10 -5 10 6 0 17 -5 25 -10z m365 -6
c16 -11 35 -14 57 -10 l33 7 -28 -16 c-36 -21 -66 -16 -85 13 -17 26 -10 28
23 6z m187 -4 c25 0 29 -3 18 -10 -15 -9 -80 -14 -80 -6 0 2 -3 12 -7 21 -5
15 -3 16 15 6 11 -6 36 -11 54 -11z m-67 -51 c-4 -5 -16 -9 -28 -9 -21 1 -21
1 -3 15 20 15 41 11 31 -6z m-1244 -399 c58 -24 121 -58 177 -96 2 -1 -8 -20
-22 -42 -26 -41 -53 -65 -106 -94 -17 -10 -29 -22 -26 -27 11 -18 -95 -32
-153 -21 -77 15 -211 111 -211 152 0 16 68 96 97 115 28 19 105 41 144 42 14
1 59 -13 100 -29z m-952 -16 c17 -14 31 -34 31 -45 0 -24 -33 -113 -55 -145
-16 -24 -16 -24 -45 -7 -22 12 -39 38 -60 90 -17 41 -28 78 -24 84 8 14 84 48
106 49 9 0 30 -12 47 -26z m1184 -126 c8 -29 -83 -123 -150 -157 -81 -40 -86
-41 -142 -45 -72 -4 -115 7 -165 42 -22 16 -48 31 -56 34 -8 4 -31 13 -51 22
-37 15 -37 15 -82 -19 -72 -55 -90 -45 -32 17 60 64 75 71 121 52 21 -9 56
-31 76 -50 58 -52 96 -68 163 -68 75 0 109 17 189 97 59 60 104 97 117 97 4 0
9 -10 12 -22z m-1242 -174 c-27 -46 -157 -215 -206 -269 -56 -61 -30 -21 57
88 43 54 97 125 120 158 47 66 61 77 29 23z m1379 -183 c0 -28 -17 -35 -29
-13 -11 21 -6 32 16 32 7 0 13 -9 13 -19z m143 -160 c-9 -12 -23 18 -16 35 6
17 8 17 13 -6 4 -14 5 -27 3 -29z m-1678 -32 c59 -17 29 -21 -35 -5 -32 8 -45
14 -30 15 14 0 43 -4 65 -10z m263 -16 c13 -5 -24 -9 -93 -9 -64 -1 -113 1
-111 4 21 20 153 24 204 5z m1403 -46 c-10 -9 -11 -8 -5 6 3 10 9 15 12 12 3
-3 0 -11 -7 -18z m-461 -138 c0 -32 -4 -49 -11 -47 -6 2 -10 7 -10 11 1 4 1
25 1 47 0 22 5 40 10 40 6 0 10 -23 10 -51z m487 -115 c2 -5 -12 -18 -32 -27
-45 -22 -53 -52 -26 -112 27 -60 27 -100 0 -133 l-22 -27 7 28 c5 20 -2 48
-25 99 -28 64 -30 75 -20 109 6 21 24 47 38 59 27 21 74 24 80 4z m-746 -90
c15 -7 41 -25 58 -40 l32 -27 -96 -43 c-52 -24 -122 -50 -154 -59 -67 -17
-191 -20 -191 -5 0 15 -49 90 -59 90 -5 0 -17 -26 -27 -57 l-20 -57 -59 2
c-140 5 -225 15 -225 26 0 11 42 54 98 101 15 13 40 19 75 20 29 1 70 5 92 10
l40 8 -20 -23 c-21 -25 -11 -21 38 13 16 10 29 18 30 16 1 -2 14 -26 28 -54
37 -71 58 -71 87 3 12 32 22 65 22 74 0 13 11 18 48 20 77 5 175 -4 203 -18z
m-726 1 l30 -13 -47 -1 c-52 -1 -81 7 -72 20 8 13 54 10 89 -6z m432 -46 l-22
-51 -22 29 c-13 15 -23 34 -23 41 0 14 34 30 67 31 l21 1 -21 -51z m-624 0
c-4 -16 -8 -17 -14 -7 -13 19 -11 28 5 28 9 0 12 -7 9 -21z m1042 -41 c14 -6
24 -16 22 -22 -3 -9 -171 -54 -207 -56 -8 0 24 20 70 44 47 24 86 44 87 45 1
0 14 -4 28 -11z m1020 -80 c18 -8 24 -20 27 -54 4 -52 -19 -71 -29 -24 -7 39
-16 44 -38 20 -16 -17 -20 -18 -38 -5 -39 27 -53 9 -18 -22 18 -15 18 -19 5
-44 -8 -15 -14 -37 -14 -49 0 -25 -18 -27 -27 -2 -4 9 -13 28 -22 41 -14 22
-15 22 -28 5 -7 -10 -13 -29 -13 -43 0 -14 -7 -35 -15 -45 -8 -11 -15 -36 -15
-56 0 -34 -2 -36 -35 -37 -19 -1 -33 3 -30 7 3 5 -3 14 -14 19 -30 16 -64 82
-67 130 -3 42 -2 43 12 22 20 -29 39 -22 39 14 0 15 6 30 13 32 6 3 12 -3 12
-11 0 -31 30 -29 60 3 17 18 36 28 44 25 11 -4 18 6 26 35 8 29 16 41 29 41
21 0 31 19 31 57 0 25 0 25 41 -11 22 -20 51 -42 64 -48z m-1950 24 c6 -21 5
-22 -13 -11 -12 8 -17 19 -14 31 5 22 17 14 27 -20z m423 -24 c11 -26 9 -28
-14 -34 -34 -9 -38 -2 -24 41 13 39 19 37 38 -7z m1686 -70 c-3 -4 -17 -2 -32
4 -45 19 -46 26 -3 15 22 -6 38 -14 35 -19z m-2227 -10 c-3 -8 -6 -5 -6 6 -1
11 2 17 5 13 3 -3 4 -12 1 -19z m1933 -269 c0 -6 -4 -7 -10 -4 -5 3 -10 11
-10 16 0 6 5 7 10 4 6 -3 10 -11 10 -16z m-1924 -128 c-15 -23 -29 -41 -32
-41 -4 0 0 10 8 23 8 12 21 32 29 44 7 12 15 20 17 18 2 -1 -8 -22 -22 -44z
m2091 -218 c-4 -3 -13 0 -22 7 -12 10 -13 16 -3 27 11 13 14 12 22 -6 5 -12 6
-24 3 -28z m-54 -17 c6 -15 -11 -36 -29 -36 -22 0 -28 23 -9 37 24 17 32 16
38 -1z m-74 -49 c8 -10 7 -17 -1 -25 -16 -16 -25 -15 -32 4 -12 30 12 45 33
21z m-76 -73 c-17 -13 -43 -19 -43 -10 0 2 -3 11 -6 19 -4 10 4 21 23 30 26
14 29 14 36 -5 5 -14 2 -25 -10 -34z"/>
<path d="M2025 2070 c-9 -15 14 -40 31 -33 9 3 14 -2 14 -16 0 -24 -10 -27
-28 -9 -9 9 -15 9 -24 0 -9 -9 -7 -18 9 -39 25 -34 45 -39 67 -18 34 34 6 125
-39 125 -13 0 -27 -5 -30 -10z"/>
<path d="M1144 2063 c4 -9 2 -19 -4 -23 -17 -10 9 -72 29 -68 20 4 28 73 10
94 -16 20 -43 18 -35 -3z"/>
<path d="M2087 3793 c-3 -5 -21 -65 -41 -134 -20 -70 -54 -171 -76 -224 -22
-54 -40 -101 -40 -104 0 -3 21 26 45 64 49 76 92 180 124 294 11 40 23 81 26
92 5 14 1 19 -14 19 -11 0 -22 -3 -24 -7z"/>
<path d="M2236 3776 c-3 -13 -9 -32 -12 -43 -3 -10 3 -6 13 10 11 15 28 34 39
42 18 14 18 14 -7 15 -20 0 -28 -6 -33 -24z"/>
<path d="M3662 2698 c-6 -6 -12 -23 -12 -37 l0 -25 16 22 c11 16 25 22 50 22
24 0 34 4 32 13 -6 16 -70 21 -86 5z"/>
<path d="M3595 2335 c-28 -24 -69 -55 -92 -67 -24 -13 -43 -27 -43 -32 0 -5
25 -6 56 -2 54 6 122 35 194 82 19 12 47 26 63 29 15 4 27 13 27 21 0 29 -43
13 -164 -60 -33 -20 -64 -36 -70 -36 -6 0 12 22 39 50 27 27 47 52 44 54 -2 3
-27 -15 -54 -39z"/>
<path d="M3740 2303 c-30 -20 -87 -66 -126 -104 -56 -52 -81 -68 -113 -74 -39
-6 -59 -20 -47 -32 3 -3 34 -5 68 -5 l63 0 -70 -34 c-64 -31 -77 -34 -147 -32
-79 3 -101 -5 -50 -19 57 -16 135 -8 192 21 l55 28 -30 -26 c-52 -45 -144 -86
-192 -86 -53 0 -56 -15 -5 -29 55 -16 88 -13 144 11 l50 21 26 -34 c15 -19 62
-71 104 -116 57 -61 81 -95 91 -129 7 -25 17 -44 22 -42 17 5 7 151 -14 214
-24 69 -78 124 -140 143 -38 11 -40 13 -29 34 6 12 10 24 9 25 -8 10 44 54 83
72 24 12 60 37 80 57 34 35 36 40 36 105 0 37 -1 68 -3 68 -1 0 -27 -16 -57
-37z"/>
<path d="M3690 1987 c0 -5 13 -25 30 -45 16 -20 39 -48 50 -62 16 -21 19 -22
20 -7 0 10 -22 42 -50 70 -27 29 -50 48 -50 44z"/>
<path d="M3260 1893 c0 -3 8 -15 18 -26 16 -19 16 -19 -5 -13 -40 13 -25 -10
22 -33 36 -18 59 -22 105 -19 52 3 59 1 55 -13 -7 -21 48 -91 177 -228 54 -58
96 -106 95 -107 -2 -2 -30 10 -63 26 -75 35 -113 69 -221 193 -55 64 -88 95
-93 87 -5 -8 -10 -2 -14 14 -6 26 -26 37 -26 14 1 -27 49 -129 83 -176 20 -27
59 -65 86 -83 l49 -34 -31 -17 -32 -17 40 -1 c53 0 148 -25 182 -47 14 -9 32
-32 39 -50 24 -56 56 -32 36 27 -9 25 -8 30 5 30 12 0 14 6 9 28 -4 15 -9 42
-11 61 -9 71 -107 190 -240 289 -60 45 -76 52 -115 52 -30 0 -58 8 -85 25 -40
24 -65 31 -65 18z"/>
<path d="M3469 1436 c42 -50 93 -96 133 -119 56 -33 155 -121 180 -162 l18
-30 0 34 c0 23 -8 44 -24 60 -13 15 -36 49 -51 76 -36 66 -69 101 -121 125
-47 23 -151 36 -135 16z"/>
<path d="M3740 919 c0 -5 5 -7 10 -4 6 3 10 8 10 11 0 2 -4 4 -10 4 -5 0 -10
-5 -10 -11z"/>
<path d="M730 813 c-125 -22 -310 -78 -432 -130 -60 -25 -107 -48 -105 -49 2
-2 46 14 99 35 199 82 307 109 508 131 58 7 114 16 125 20 34 15 -102 10 -195
-7z"/>
<path d="M3723 207 c-22 -50 -52 -118 -67 -149 -19 -44 -22 -58 -12 -58 20 0
136 283 122 297 -1 2 -21 -39 -43 -90z"/>
<path d="M1136 139 c-30 -82 -31 -86 -10 -69 27 24 66 140 46 140 -5 0 -21
-32 -36 -71z"/>
</g>
</svg>
